<?xml version="1.0" standalone="no"?>
<!DOCTYPE svg PUBLIC "-//W3C//DTD SVG 20010904//EN"
 "http://www.w3.org/TR/2001/REC-SVG-20010904/DTD/svg10.dtd">
<svg version="1.0" xmlns="http://www.w3.org/2000/svg"
 width="1141.000000pt" height="1080.000000pt" viewBox="0 0 1141.000000 1080.000000"
 preserveAspectRatio="xMidYMid meet">

<g transform="translate(0.000000,1080.000000) scale(0.100000,-0.100000)"
fill="#000000" stroke="none">
<path d="M5580 10720 c-85 -4 -212 -13 -282 -20 l-128 -13 0 -231 c0 -127 11
-2456 25 -5176 14 -2720 25 -4990 25 -5046 l0 -101 -152 22 c-566 82 -1109
254 -1621 512 -525 266 -943 569 -1363 988 -315 315 -559 623 -781 985 -646
1056 -902 2294 -728 3525 140 990 568 1938 1221 2701 330 385 706 717 1134
996 539 353 1109 593 1763 742 25 6 27 10 27 56 0 60 9 58 -172 30 -1458 -225
-2784 -1081 -3602 -2327 -736 -1122 -1021 -2462 -805 -3792 134 -824 483
-1639 998 -2326 409 -546 937 -1021 1523 -1371 368 -219 776 -398 1203 -527
332 -101 753 -191 885 -189 48 1 135 -8 200 -20 63 -11 169 -22 235 -23 66 -2
183 -9 260 -17 183 -17 757 -17 930 1 517 51 962 150 1405 311 150 54 383 151
377 156 -1 2 -52 -17 -113 -42 -162 -67 -408 -149 -594 -199 -194 -52 -289
-68 -146 -25 528 158 989 368 1416 645 1727 1120 2656 3130 2385 5165 -182
1375 -893 2621 -1985 3481 -824 649 -1813 1036 -2860 1118 -185 15 -504 20
-680 11z m2180 -3254 c475 -64 879 -256 1161 -553 113 -118 114 -142 16 -335
-131 -255 -325 -581 -388 -649 -55 -59 -69 -55 -206 62 -290 249 -512 351
-793 365 -348 18 -645 -130 -825 -411 -128 -200 -187 -416 -186 -690 0 -255
45 -451 145 -629 178 -319 457 -486 811 -486 311 0 544 96 850 349 63 52 119
91 132 91 33 0 90 -72 278 -355 176 -266 248 -383 260 -423 13 -44 -34 -111
-180 -257 -252 -253 -498 -395 -830 -480 -343 -88 -764 -88 -1110 0 -380 96
-660 258 -935 541 -433 446 -640 1022 -617 1719 20 608 209 1090 595 1520 330
368 756 583 1252 634 121 12 433 5 570 -13z"/>
<path d="M1968 7383 c-56 -8 -56 -14 -38 -373 16 -318 38 -906 51 -1357 12
-455 7 -720 -31 -1423 -11 -201 -25 -518 -31 -706 -13 -383 -12 -390 51 -410
25 -8 388 -13 1225 -18 655 -3 1251 -10 1325 -15 74 -5 176 -13 227 -17 l92
-7 35 35 c21 21 40 54 50 89 45 148 118 657 120 825 1 162 7 158 -199 151 -88
-4 -232 -13 -320 -22 -420 -39 -951 -44 -1112 -11 -152 31 -225 84 -240 173
-4 26 -8 138 -8 247 l0 199 28 21 c28 21 34 21 585 20 506 0 574 -2 748 -22
263 -31 264 -30 264 142 0 121 22 404 50 653 26 229 26 239 -6 260 -24 15 -37
15 -212 0 -240 -22 -595 -36 -992 -39 -315 -3 -315 -3 -364 21 -41 20 -53 33
-75 80 -25 54 -26 61 -26 251 0 214 3 227 58 257 29 16 67 18 402 17 353 -1
693 -16 1099 -48 166 -14 206 -11 222 15 12 20 6 153 -22 454 -43 474 -49 499
-129 539 -47 23 -141 24 -925 5 -434 -11 -1296 -4 -1790 15 -47 1 -97 1 -112
-1z"/>
<path d="M8220 600 c-8 -5 -10 -10 -5 -10 6 0 17 5 25 10 8 5 11 10 5 10 -5 0
-17 -5 -25 -10z"/>
</g>
</svg>
